<svg width="960" height="420" viewBox="0 0 960 420" fill="none" xmlns="http://www.w3.org/2000/svg">
  <defs>
    <linearGradient id="bg" x1="0" y1="0" x2="960" y2="420" gradientUnits="userSpaceOnUse">
      <stop stop-color="#FCFDFC"/>
      <stop offset="1" stop-color="#EDF4EF"/>
    </linearGradient>
    <filter id="shadow" x="106" y="74" width="732" height="254" filterUnits="userSpaceOnUse" color-interpolation-filters="sRGB">
      <feDropShadow dx="0" dy="10" stdDeviation="10" flood-color="#173322" flood-opacity="0.08"/>
    </filter>
    <marker id="arrowBlue" markerWidth="10" markerHeight="10" refX="8" refY="5" orient="auto"><path d="M0 0L10 5L0 10" fill="#1976D2"/></marker>
    <marker id="arrowGreen" markerWidth="10" markerHeight="10" refX="8" refY="5" orient="auto"><path d="M0 0L10 5L0 10" fill="#2E7D32"/></marker>
  </defs>
  <rect width="960" height="420" rx="28" fill="url(#bg)"/>
  <g filter="url(#shadow)"><rect x="126" y="90" width="692" height="230" rx="24" fill="#FFFFFF"/></g>
  <text x="144" y="66" fill="#334E41" font-family="Arial, Helvetica, sans-serif" font-size="28" font-weight="700">SHEEP MEASUREMENT GUIDE</text>
  <g transform="translate(140 96)">
    <path d="M155 194L152 292" stroke="#766055" stroke-width="5" stroke-linecap="round"/>
    <path d="M221 194L218 292" stroke="#766055" stroke-width="5" stroke-linecap="round"/>
    <path d="M437 195L434 292" stroke="#766055" stroke-width="5" stroke-linecap="round"/>
    <path d="M503 194L500 292" stroke="#766055" stroke-width="5" stroke-linecap="round"/>
    <path d="M146 292H166" stroke="#534239" stroke-width="3.5" stroke-linecap="round"/>
    <path d="M212 292H232" stroke="#534239" stroke-width="3.5" stroke-linecap="round"/>
    <path d="M428 292H448" stroke="#534239" stroke-width="3.5" stroke-linecap="round"/>
    <path d="M494 292H514" stroke="#534239" stroke-width="3.5" stroke-linecap="round"/>
    <path d="M131 179C138 153 153 137 180 127C219 113 283 111 372 116C447 120 501 131 543 150C555 147 568 145 582 145C602 145 619 153 627 166C634 179 631 190 618 198C603 207 578 210 544 208L492 208H149C135 203 126 191 131 179Z" fill="#FCFCFB" stroke="#A7B7BD" stroke-width="2.2" stroke-linejoin="round"/>
    <path d="M544 150C558 130 577 119 600 115C623 111 643 117 655 128C665 139 668 152 661 164C654 176 640 185 621 190C601 195 576 196 544 192V150Z" fill="#FCFCFB" stroke="#766055" stroke-width="2.2" stroke-linejoin="round"/>
    <path d="M220 145C265 137 352 137 475 142C512 144 545 147 573 151" stroke="#BCC8CD" stroke-width="1.6" stroke-linecap="round" opacity="0.85"/>
    <path d="M181 127C189 154 189 179 184 208" stroke="#8EA2AB" stroke-width="1.4" opacity="0.8"/>
    <path d="M220 127C229 154 229 179 225 208" stroke="#8EA2AB" stroke-width="1.4" opacity="0.8"/>
    <path d="M438 122C443 149 444 177 441 207" stroke="#8EA2AB" stroke-width="1.4" opacity="0.8"/>
    <path d="M501 126C504 151 505 176 503 205" stroke="#8EA2AB" stroke-width="1.4" opacity="0.8"/>
    <ellipse cx="608" cy="145" rx="4.5" ry="4.5" fill="#1A1512"/>
    <ellipse cx="452" cy="161" rx="18" ry="60" fill="none" stroke="#1976D2" stroke-width="5" stroke-dasharray="9 6"/>
    <line x1="151" y1="50" x2="560" y2="50" stroke="#2E7D32" stroke-width="6" marker-start="url(#arrowGreen)" marker-end="url(#arrowGreen)"/>
    <text x="292" y="31" fill="#2E7D32" font-family="Arial, Helvetica, sans-serif" font-size="20" font-weight="700">BODY LENGTH</text>
    <text x="18" y="94" fill="#1976D2" font-family="Arial, Helvetica, sans-serif" font-size="20" font-weight="700">HEART GIRTH</text>
    <path d="M92 100C149 96 261 100 412 128" stroke="#1976D2" stroke-width="4" stroke-linecap="round" marker-end="url(#arrowBlue)"/>
    <text x="164" y="232" fill="#766055" font-family="Arial, Helvetica, sans-serif" font-size="14" font-weight="700">SHOULDER / کندھا</text>
    <path d="M226 222L216 199" stroke="#766055" stroke-width="2" stroke-linecap="round"/>
    <text x="434" y="244" fill="#1976D2" font-family="Arial, Helvetica, sans-serif" font-size="14" font-weight="700">GIRTH / چھاتی گھیر</text>
    <path d="M478 234L460 206" stroke="#1976D2" stroke-width="2" stroke-linecap="round"/>
    <text x="494" y="234" fill="#766055" font-family="Arial, Helvetica, sans-serif" font-size="14" font-weight="700">PIN BONE / کولہے کی ہڈی</text>
    <path d="M542 224L515 203" stroke="#766055" stroke-width="2" stroke-linecap="round"/>
  </g>
  <g font-family="Arial, Helvetica, sans-serif" fill="#43584D">
    <text x="70" y="372" font-size="22" font-weight="700" fill="#334E41">Heart girth / چھاتی گھیر:</text>
    <text x="334" y="372" font-size="18">wrap tape around the chest just behind the front legs.</text>
    <text x="334" y="392" font-size="18">سامنے والی ٹانگوں کے پیچھے چھاتی کے گرد ٹیپ لپیٹیں۔</text>
    <text x="70" y="412" font-size="22" font-weight="700" fill="#334E41">Body length / جسم کی لمبائی:</text>
    <text x="334" y="412" font-size="18">measure from shoulder point to the rear pin bone or rump.</text>
  </g>
</svg>
